<svg xmlns="http://www.w3.org/2000/svg" width="2048" height="1024" viewBox="0 0 1536 1024"><path fill="#010101" d="M1223.98 343.91c-1.62 7.399-3.582 14.871-2.77 22.52 2.392-5.16 5.09-10.23 6.75-15.68-1.44 1.86-2.48 4.059-4.39 5.512.602-5.16 1.5-10.301 1.668-15.5-.449 1.039-.879 2.09-1.258 3.148m-45.539 1.559c.43-.137 1.278-.418 1.7-.559.02-3.39 1.02-6.68 1.168-10.058-2.23 3.07-1.778 7.128-2.868 10.617m84.22-34.75c.327 4.422 3.019 8.113 4.269 12.281.73 3.27 3.949 4.84 6.441 6.648 6.738 4.32 13.05 9.262 19.61 13.84 1.91-4.187 4.19-8.328 4.91-12.937-1.73 2.05-2.813 4.539-4.192 6.808.012-6.5-.758-13.89-5.969-18.449.25 5.82 1.579 11.531 1.899 17.352-2.309-.64-2-3.43-2.66-5.25-.969-4.992-2.52-9.883-5.14-14.274-.118 3.852 1.62 7.41 1.831 11.211-3.738-4.98-7.66-9.82-11.41-14.789-.121 4.86 2.398 9.262 3.14 14.012-.41.129-1.218.379-1.628.508a34.6 34.6 0 0 0-11.102-16.961m-16.941.613c1.402 2.629 4.32 3.809 6.25 5.977-5.547-.54-10.899-2.149-16.309-3.41.23.453.692 1.363.918 1.812 9.844 2.32 19.32 5.879 29.05 8.598-1-4.93-4.206-9.028-8.57-11.45.981 1.66 2.102 3.223 3.141 4.852-4.82-2.129-9.68-4.2-14.48-6.379m-25.04-18.64c-.019 2.148.09 4.296.2 6.449.332.148 1 .441 1.332.578-.242-2.367.648-5.328-1.531-7.028m.27-14.742a76 76 0 0 0-1.99 2.813c.642-.551 1.919-1.66 2.56-2.211 1.27 6.031 1.902 12.289 4.011 18.11-.75-7.692-1.27-15.462-2.82-23.04a74 74 0 0 0-1.762 4.328m3.371-9.308c-.492 4.3.508 8.59 2.27 12.507-.309-2.418-.93-4.796-.98-7.238-.239-1.789.21-3.922-1.29-5.27m-26.308-53.89c2.468 3.14 4.449 6.75 5.297 10.691.582 2.77 1.21 5.59 2.66 8.07.582-2.632-.93-6.09 1.492-8.023 1.57 7.91 1.648 16.032 2.96 23.98 1.638-4.788 1.798-9.91 3.06-14.788 1.648 6.172-.16 12.46.097 18.699 1.25-2.18 1.781-4.68 3.024-6.86.218 6.11.18 12.243-.403 18.333 2.653-2.82 3.153-6.961 5.77-9.782-.668 7.121-2.93 13.93-4.27 20.918 2.723-3.847 5.403-7.726 7.871-11.726 1.078 3.258 1.79 6.629 2.399 10.008 1.59-1.32 1.14-3.508 1.27-5.31.171-7.722.613-15.44 1.292-23.128.547.61.91 1.316 1.078 2.129.48 7.05.172 14.16 1.04 21.18.882-7.77 1.82-15.54 3.132-23.25.188-1.422.649-2.75 1.36-3.993.449 2.313.64 4.672.859 7.024 1.531-4.524 1.262-9.64 3.629-13.84.18 4.77-.738 9.527-.32 14.297 1.5-5.348 3.851-10.668 4.011-16.258.489.758 1.032 1.5 1.59 2.238 1.512-2.527 1.442-5.968 3.95-7.847-.25 3.668-2.07 7.078-1.688 10.808 2.34-3.879 3.558-8.32 5.95-12.18 1-1.59 1.769-3.55 3.737-4.152-.879 2.864-2.41 5.461-3.597 8.192 3.36-2.371 6.976-5.309 11.398-3.739-4.32 1.72-8.21 4.528-10.191 8.868 3.59-.66 7.222-1.938 10.922-1.329-3.602 2.211-8.121 2.93-11.063 6.122 2.242-.313 4.352-1.141 6.5-1.832-4.539 4.859-10.34 8.43-14.719 13.46 3.95-1.378 7.43-3.832 11.45-5.03-.11 1.581-1.54 2.222-2.598 3.05-3.461 2.582-7.14 4.95-10.063 8.16 2.41-1.031 4.801-2.148 7.383-2.75-3.71 3.899-7.851 7.38-11.383 11.442 3.204-.23 5.891-2.262 9.012-2.903-4.36 4.153-8.969 8.04-13.129 12.403 4.14-1.262 7.88-3.532 11.938-5.012-1.16 3.27-2.82 6.36-3.649 9.75 5.27-7.102 10.72-14.738 18.559-19.16-3.98 5.05-8.73 9.55-11.719 15.32 6.399-5.059 12.63-10.379 19.309-15.078l1.601-.352c-1.422 2.02-3.25 3.7-4.87 5.551 4.171-1.383 8.07-3.71 12.5-4.25-3.188 3.05-7.99 3.777-10.84 7.23 6.66-1.812 13.628-5.203 20.62-2.78-2.761 1.25-5.64 2.19-8.44 3.32 6.179.28 12.21-2.032 18.42-1.192-2.17 1.422-4.75 1.93-7.14 2.79 4.942 1.25 10.352 1.542 14.75 4.363-6.41-.5-12.8-1.332-19.218-1.582 4.546 3.21 10.52 4.77 13.84 9.468-5.801-2.258-11.32-5.25-17.301-7.047.687.438 2.058 1.34 2.75 1.79-.75.37-1.48.73-2.2 1.101-4.3-1.371-8.27-3.8-12.812-4.32 2.84 2.59 6.492 3.988 9.562 6.25-3.832.207-7.25-1.953-10.8-3.051.289.61.879 1.82 1.168 2.43-4.04.53-8.797-.45-12.258 2.02 4.097-.15 8.129-.692 12.238-.942-6.258 3.8-12.809 7.12-18.89 11.203 9.042-1.883 17.75-5.813 27.132-5.832 4.45-.149 8.918.32 13.239 1.45-11.149.85-22.36 3.17-32.5 7.972 13.671-2.18 27.69-1.301 41.332.75-5.774 2.636-12.59.617-18.524 2.886 8.73.82 18.152 1.762 25.102 7.723-7.64-.992-15.18-2.89-22.899-3.14 8.13 3.718 16.559 6.878 24.457 11.109-2.34-.102-4.699-.461-7-.668 3.532 3.308 7.242 6.469 10.434 10.129-6.121-1.59-10.723-6.563-16.781-8.219 3.18 3.137 7.078 5.54 10.02 8.918 2.339 3.86 4.577 7.871 5.82 12.23-2.622-2.71-4.711-5.898-7.38-8.558-.09 6.129.75 12.238 1 18.367-.011 1.961.598 4.14-.71 5.852-1.82-8.211-4.262-16.282-5.84-24.54-2.64 3.16-3.95 7.118-5.723 10.778-.906 2.11-2.5 5.18.332 6.52 11.719 8.53 22.93 20.402 24.399 35.472-3.739-5.262-6.079-11.539-10.38-16.351.88 3.671 2.782 6.992 3.68 10.66-3.949-5.168-6.77-11.07-10.007-16.68.859 5.46 2.648 10.719 4.136 16.031.403 1.77 1.723 3.688.434 5.41-1.211-2.082-2.3-4.21-3.434-6.32-.02 2.45.133 4.899.063 7.36-1.29-1.102-1.43-2.82-1.832-4.32-1-4.712-2.117-9.411-3.77-13.93-.21 6.257.192 12.519.332 18.78-4.59-3.41-3.851-9.78-6.73-14.261.008 2.91.347 5.809.12 8.71-2.062-4.01-2.46-8.64-3-13.038-.292-.031-.87-.07-1.16-.09.009 2.477.028 4.969-.113 7.457-1.347-1.11-1.308-2.89-1.617-4.418-1.351-7.152-1.86-14.691-5.652-21.101 1.422 7.23 2.512 14.5 3.441 21.8-2.808-2.199-3.398-5.949-5.34-8.789-.308 1.7-.628 3.39-.949 5.09-2.043-2.89-3.73-6.02-5.68-8.96.02 1.519.04 4.538.047 6.05-2.32-4.57-3.386-9.621-5.378-14.32-1.532-3.68-2.93-7.41-3.848-11.29-.274-.28-.8-.84-1.07-1.12 1.328 7.16 4.668 13.808 5.886 20.98-2.797-1.992-3.258-5.723-4.84-8.563.223 3.524 1.274 6.934 1.641 10.442-1.437-1.18-2.508-2.7-3.55-4.192.12 2.704.261 5.403.183 8.114-1.3-2.352-1.742-5.012-2.223-7.614-5.59.34-9.86-3.75-14.629-5.918 4.352 8.47 14.239 11.98 19.43 19.829-8.84-4.207-16.012-11.079-24.25-16.258 2.379 3.558 6.14 5.89 8.531 9.46 5.028 5.7 10.39 11.188 14.848 17.36-4.11-2.16-7.2-5.762-11.11-8.223 2.57 5.48 8.153 9.852 8.141 16.313-4.09-4.59-7.738-9.61-12.27-13.781 2.06 6.851 6.032 12.902 9.38 19.18-1.782-1.098-3.461-2.348-5.18-3.481.82 2.973 2.469 5.8 2.48 8.96-3.39-3.429-5.57-7.8-8.691-11.429 2.312 6.75 4.351 13.59 5.86 20.578-3.169-1.789-4.067-5.777-6.098-8.61-1.121 5.673-2.653 11.321-4.86 16.673l-1.05.96c.238-7.21.769-14.41 1.03-21.613-5.452 4.262-7.991 11.114-13.03 15.832-1.032-7.43 6.19-11.761 7.84-18.3-2.641 2.02-4.43 4.922-7.192 6.789 1.441-7.117 8.531-11.61 9.633-18.867-2.973 2.668-5.5 5.777-8.563 8.34-.808.898-1.98 1.046-3.09 1.18 2.38-5.653 7.13-9.872 9.532-15.52-2.582 2.128-4.461 4.918-6.743 7.32.66-5.582 1.582-11.113 2.832-16.582-3.39 3.11-4.12 8.86-8.66 10.59 2.14-6.89 4.72-13.7 6.45-20.68-2.942 2.809-5.06 6.309-7.391 9.61-.629 1.199-1.77 1.902-3.02 2.28 1.02 2.41 1.86 4.91 2.7 7.4a309 309 0 0 1-3.11-2.47c.68 3.782 1.52 7.64.77 11.48-.11 6.759 1.351 13.419 2.18 20.11 1.98 18.23 2.28 36.602 4.18 54.84.523 9.5.273 19.04-.708 28.5-4.89 1.879-9.46 4.41-13.883 7.2 1.532-9.86 3.551-19.669 4.032-29.66.96-17.571-.02-35.231-2.739-52.61-1.23-8.828-1.691-18.57-8.152-25.442 1.11 6.711 4.062 13.032 4.68 19.832-2.84-2.148-3.48-5.941-5.809-8.53-1.988 4.972-1.852 11.269-5.77 15.198-.218-6.707 1.239-13.316 1.79-19.968-4.899 4.5-8.16 10.55-13.22 14.84.731-7.38 7.579-12.04 8.88-19.15-3.352 2.052-4.88 6.72-8.86 7.58 4.13-6.2 7.64-12.759 11.43-19.161-5.102 2.14-8.262 7.172-13.059 9.793 1.93-3.531 4.207-6.871 6.528-10.16 1.52-2.25 3.82-4.09 4.36-6.883-2.907 2.062-5.09 5.082-8.349 6.633a248 248 0 0 1 8.07-15.551c-.3-.29-.59-.57-.85-.852-3.47 2.871-6.88 5.942-11.009 7.852 1.7-4.852 6.13-7.86 9.098-11.871 1.39-2.102 4.34-3.57 4.133-6.399-4.512 2.82-10.16 4.13-13.402 8.649-1.192-.86-.551-2.82-1.06-3.969-.991.93-1.98 1.84-2.991 2.73.172-3.23.46-6.46.48-9.69-1.148 2.077-1.168 5.058-3.418 6.308.2-2.047.617-4.07 1.149-6.059-.48-.601-.942-1.2-1.399-1.789-.422 4.598-1.902 9-2.543 13.559-.718-1.5-1.328-3.008-1.976-4.52-1.153 2.23-2.192 4.531-3.551 6.64a65 65 0 0 1-1.422-3.89c-1.508 2.39-1.16 6.461-4.367 7.32.25-7.16.61-14.32 1.078-21.46-2.5 5.671-2.922 11.89-2.66 18.011-.238 2.309.691 5.18-1.38 6.89-.55-3.07-.57-6.183-.929-9.26-1.582 4.769-.941 10.019-2.64 14.71-.5-1.89-.871-3.789-1.282-5.68-1.73 3.438-1.218 8.008-4.09 10.77-1.167-6.191-.109-12.582-1.398-18.762-1.02 5.64-1.96 11.301-3.02 16.93-.632-2.258-.91-4.598-1.37-6.879-.692 2.04-1.141 4.148-1.852 6.191-.3-.191-.918-.562-1.219-.75.29-6.511 2.77-12.742 2.871-19.25-2.61 5.399-4.601 11.23-8.152 16.098.492-3.488 2.101-6.7 2.691-10.16-3.77 3.73-4.379 9.601-8.27 13.21 1.91-11.429 8.278-22.12 17.829-28.769 5.48-3.738 9.652-9 14.86-13.058 7.96-5.961 17.011-10.512 26.671-12.922 3.531-1.258 7.418-1.39 10.852-2.899-5.992.778-12.102 1.141-17.813 3.278-2.36.543-4.527 2.453-7.05 1.64 2.96-2.289 6.39-3.859 9.421-6.078-6.808.188-11.36 6.469-17.691 8.239 2.871-3.961 7.371-6.25 10.473-10-7.454 1.44-13.532 6.71-18.172 12.468-1.801 1.942-3.309 4.364-5.852 5.403 3.434-9.23 11.344-15.711 19.07-21.309-9.187 2.668-17.218 8.7-22.949 16.29-1.687 2.026-2.379 5.21-5.21 5.968 1.53-4.41 4.19-8.29 5.84-12.64-4.888 4.5-7.79 11.32-13.74 14.538 2.821-5.648 6.52-10.808 9.833-16.18-7.32 2.801-11.133 9.833-15.512 15.774.09-1.293.281-3.863.371-5.14-1.691 3.007-2.62 6.347-3.953 9.519-1.637-5.32 1.73-10.25 2.961-15.25-3.48 3.598-6.238 8.008-7.219 12.969-.93 3.449-1.05 7.28-3.11 10.332-.382-4.32.68-8.57.77-12.864-3.16 4.832-5.492 10.684-10.808 13.602 3.52-9.102 6.707-18.5 12.289-26.59-3.492.3-7.18-.7-10.45.899-4.902 1.812-8.57 5.742-13.241 7.972 2.851-4.71 6.43-9.11 11-12.25 8.28-4.949 18.308-4.34 27.46-6.37-5.671-2.18-11.89-1.962-17.832-2.74 7.993-3.773 16.91-1.312 25.364-1.589-3.723-1.352-7.692-1.812-11.41-3.113 7.937-2.399 16.507-1.7 24.707-2.778-5.16-1.992-11.16-2.382-15.63-5.77 4.5-.202 8.91.79 13.31 1.65 6.273 1.288 12.62 2.21 18.96 3.199-5-2.329-9.61-5.348-14.32-8.188-.95-.613-2.027-1.102-2.488-2.172 6.699.93 12.468 4.828 18.789 6.899-.97-1.02-1.98-1.989-2.91-3 4.109-.528 8.25-1.11 12.218-2.399-3.648-.25-7.347-.07-10.937-.87 1.82-1.708 4.418-1.208 6.699-1.438 5.36-.391 10.73.238 16.09-.16-2.55-2.102-6.04-1.481-9.09-1.762-6.781-.371-13.55.61-20.309.28 2-1.14 4.239-1.71 6.457-2.339-2.046-.05-4.078-.09-6.09-.18l.563-2.562c-1.973.633-4.02.953-6.062 1.07 1.28-1.527 2.902-2.687 4.492-3.89-3.84-.41-7.711-.239-11.512-.88 7.441-3.718 15.68-4.98 23.89-5.679-9.667-2.91-19.23 2.11-28.87 2.281 2.382-1.781 5.421-2.25 8.203-3.133-.051-.238-.14-.718-.184-.949-4.816.922-9.656 1.95-14.566 1.942 1.847-2.012 4.699-2.47 7.129-3.48-3.711-.54-7.38.538-11.082.55-1.118-1.54-3.16-1.031-4.73-1.41 5.241-4.41 12.632-4.41 18.683-7.29-6.57-.202-13.012 1.54-19.563 1.329 1.813-2.149 4.852-2.031 7.27-3.078-2.5-.25-5.008-.16-7.5-.352 5.531-4.09 12.84-2.922 19.203-4.398-5.524-2.492-11.742-2.172-17.48-3.692 3.828-1.02 7.73-.41 11.617-.218-1.387-.864-2.778-1.66-4.41-1.77a81.6 81.6 0 0 1-14.547-3.32c11.726-2.223 23.84 1.386 34.039 7.16 11.14 6.808 22.62 13.16 33.078 21-.028-.863-.09-2.602-.117-3.461 2.726 2.86 5.41 5.8 8.546 8.23-2.68-7.3-8.82-12.293-12.937-18.66 4.68 2.617 8.117 6.95 12.84 9.528-3.672-5.848-8.18-11.118-12.711-16.297 2.832 1.289 5.238 3.289 7.89 4.898-2.101-4.379-6.84-6.558-9.28-10.648 4.21 1.258 7.109 4.976 11.312 6.308-2.871-3.64-6.203-6.89-9.063-10.539.211-.39.621-1.172.832-1.562-1.5-1.297-3.66-2.168-4.082-4.309 3.75.48 6.57 3.14 9.82 4.82-3.44-5.3-9.48-8.19-13.539-12.992 2.79.653 5.34 2 8.008 3.032-2.886-4.829-6.367-9.29-9.008-14.258 2.399 1.207 3.961 3.476 5.7 5.468 2.86 3.52 6.242 6.579 9.058 10.149-1.297-6.469-3.367-12.797-3.976-19.379 M736.46 399.89c4.58 18.52 9.099 37.06 13.9 55.52 1.59 6.559 3.992 12.899 5.152 19.559.738-1.43 1.449-2.867 2.297-4.239 10.62-15.242 21.87-30.058 31.89-45.718-17.789-8.293-35.25-17.262-53.238-25.121m131.05-35.18c-4.542 8.43-10.921 15.68-16.21 23.64-6.2 7.938-11.45 16.56-17.64 24.5 4.577 1.61 8.737 4.169 13.07 6.34 13.488 6.93 27.19 13.43 40.71 20.297-3.421-12.777-6.62-25.617-10.05-38.398-3.243-12.13-5.653-24.55-9.88-36.38m-29.613 5.688c-15.16 4.223-30.527 7.66-45.699 11.84-17.648 4.91-35.37 9.633-53.097 14.301 15.007 7.211 30.136 14.172 45.16 21.34 4.879 2.8 10.699 4.152 14.797 8.16l-1.137.73-.961.82c-.871-.218-2.633-.667-3.5-.898-2.813 4.07-5.242 8.399-8.29 12.309-5.722 7.172-10.26 15.18-15.831 22.46-3.57 4.599-6.61 9.571-10.078 14.231 22.02-5.453 43.867-11.543 65.847-17.18 19.922-5.39 39.782-11.05 59.891-15.722-11.719-6.348-23.879-11.848-35.75-17.898-5.75-3.211-11.82-5.79-17.73-8.653-2.149 2.473-3.899 5.262-6.18 7.614l-1.13-.723c1.29-3.45 3.161-6.66 4.33-10.149 8.17-10.101 14.901-21.3 22.901-31.53 4.559-5.981 8.547-12.368 13.278-18.22-8.86 2.7-18 4.32-26.82 7.168m16.953-8.546c5.199-1.442 10.527-2.364 15.628-4.16a1801 1801 0 0 0 13.52 52.25c2.82 11.558 5.559 23.148 8.93 34.558-12.09 2.7-23.86 6.64-35.89 9.59-34.712 8.898-69.231 18.57-103.981 27.27-.887-5.669-3.27-10.95-4.457-16.551-3.582-14.84-7.383-29.63-11.211-44.399-1.66-8.71-4.692-17.058-6.29-25.781 18.598-4.5 36.899-10.149 55.43-14.938 22.79-5.902 45.489-12.12 68.32-17.84 M999.629 405.29c-4.598 1.73-8.16 5.312-11.54 8.741 4.65-1.34 9.942-2 13.61-5.422 1.98-1.32-.097-4.43-2.07-3.32m1.172-5.52c3.18-.82 7.46-1.109 9.508 2.032.941 2.847-.829 5.77-2.809 7.71-6.379 5.68-14.75 8.38-23 9.958-14.3 18.89-22.68 41.25-31.879 62.86-11.922 28.862-26.332 57.421-48.27 80.042-5.882 6.508-12.882 11.848-19.773 17.23-15.629 10.36-33.719 17.489-52.547 18.637-13.722.84-27.832-.547-40.582-5.937-12.629-5.09-24.68-13.09-32.12-24.73-7.99-12.95-8.56-29.77-2.38-43.56 4.11-10 11.52-18.94 21.54-23.382 2.773-1.32 5.85-1.66 8.882-1.848-1.031 3.008-4.312 4.09-6.473 6.117-5.238 3.973-8.57 9.762-11.597 15.473-10.371 20.7-3.512 48.64 16.027 61.39 11.25 6.95 24.5 10.59 37.723 10.63 16.379.43 32.629-5.63 45.43-15.72 22.269-16.081 39.417-38.07 54.3-60.89 7.668-12.86 15.219-25.84 21.61-39.39 10.09-19.012 19.8-38.41 32.859-55.621-17.57 3.582-35.379 7.789-51.148 16.628-8.993 4.872-16.192 12.704-20.934 21.704-2.277 4.578-4.27 9.66-3.469 14.878.512 4.41 3.692 8.739 8.172 9.711 15.23 2.32 29.36-13.96 26.297-28.68q.152-1.62 1.773-2.523c2.297 1.293 2.137 4.262 2.387 6.551 0 8.422-4.02 16.492-9.86 22.422-5.48 5.11-13.05 8-20.558 7.379-7.531-.14-15.43-4.262-18.25-11.52-1.93-5.82-.531-12.18 1.8-17.672 5.661-13.328 18.052-22.34 30.7-28.488 17.89-8.379 37.27-13.21 56.758-16 5.5-6.308 11.434-13.219 19.883-15.39 M618.441 436.5c4.41-1.738 9.77 1.09 11.149 5.55 2.7 7.24-.54 15.49-6.149 20.4-3.16 2.64-6.632 4.972-10.382 6.679-2.258.91-4.73 1.96-7.16 1.012 2.011-2.391 5.132-3.13 7.812-4.5 5.488-2.813 9.707-7.961 11.18-13.98-3.641 1.308-8.602 2.218-11.422-1.141-4.008-4.73-.688-12.461 4.972-14.02"/>
<path fill="#3a5a3a" d="M318.41 610.3c-4.031 2.99-8.2 6.59-9.558 11.63-.75 2.718 1.277 5.28 3.507 6.59 3.832 2.242 8.27 3.261 12.66 3.69 13.79.368 27.61-2.94 39.82-9.35 15.84-7.212 29.43-18.9 39.161-33.31-7.71-.09-15.398.27-23.059 1.11-21.91 1.64-44.25 6.961-62.53 19.64m3.628-206.198c17.223-8.82 36.48-14.883 56.012-13.903 10.597.692 21.898 4.403 28.437 13.262 7.07 9.3 6.98 22 4.703 32.95-3.562 14.737-10.472 28.468-18.64 41.167-9.922 16.102-19.281 32.652-26.18 50.313-2.71 8.027-5.8 16.37-4.84 25 .418 4.37 3.34 8.66 7.75 9.75 6.028 1.609 12.29-.891 17.328-4.121 9.172-5.141 16.13-13.258 22.582-21.391 13.188-17.61 22.707-37.617 31.07-57.879 2.47-5.21 2.9-11.762 7.798-15.488 1.793-1.434 4.453-3.313 6.652-1.57 3.098 2.546 2.95 7.07 2.488 10.699-1.32 6.488-3.39 12.8-5.168 19.18-6.84 21.73-13.203 43.69-22.25 64.648-3.55 9.39-7.91 18.48-12.793 27.261 11.383-.19 22.871.098 34.09-2.199 7.793-1.402 16.203-3.832 21.402-10.203 2.68-3.117 2.461-7.316 2.34-11.16 4.211 3.152 3.02 9.242.98 13.332-3.812 8.488-13.25 12.238-21.85 13.77-13.4 1.949-26.99 1.718-40.49 1.859-8.132 13.25-20.32 23.621-33.48 31.672-16.05 10.25-34.82 16.777-53.96 17.07-7.758-.781-16.22-1.453-22.48-6.64-4.392-3.04-7.349-8.622-5.83-13.981 1.821-6.602 7.321-11.398 12.9-14.941 11.32-7.141 24.492-10.391 37.34-13.54 19.37-3.851 39.19-4.789 58.902-4.718 4.937-9.52 9.668-19.172 13.488-29.2 5.36-14.902 9.55-30.171 14.02-45.351-2.919 4.71-5.04 9.86-8.16 14.45-7.13 10.628-14.54 21.28-23.99 30.01-5.41 4.36-11.132 8.43-17.3 11.669-8.031 3.61-17.691 4.55-25.95 1.14-7.19-2.808-11.8-10.44-12.05-18.019-.73-9.96 2.988-19.488 6.68-28.55 7.32-17.72 18.2-33.59 27.66-50.18 8.14-13.829 15.121-28.61 18.441-44.391 1.399-7.86 2.098-17.39-3.93-23.59-6.652-6.7-16.882-7.027-25.722-6.598-7.27-.082-14.2 2.278-21.07 4.348-16.809 5.91-32.219 15.531-45.39 27.48-12.118 11.31-22.88 24.54-29.009 40.09-4.652 10.012-7.28 21.243-5.91 32.29.961 7.12 4.13 14.171 9.738 18.82 7.051 6.12 17.114 7.781 26.09 5.96 13.532-2.378 24.293-12.5 31.364-23.8 5.187-7.277 8.726-15.867 9.359-24.84.07-4.629-1.473-10.121-6.09-12.14-5.05-2.43-10.57.152-15.851-.169-.508-2.66 2.94-3.18 4.77-3.851 6.562-1.68 14.378-2.43 20.081 1.95 4.598 3.792 5.54 10.39 4.899 15.991-1.758 12.309-8.149 23.668-16.852 32.442a60 60 0 0 1-19.906 15.039c-7.942 4.398-17.16 6.949-26.274 5.668-10.949-1.239-20.898-7.957-26.828-17.149-6.32-10.14-7.48-22.77-5.43-34.34 3.989-20.449 16.329-38.32 31.36-52.34 10.09-8.87 21.039-16.78 32.95-23.038"/><path fill="#010101" d="M1234.719 499.77c-12.16 8.011-21.137 19.98-27.989 32.66-2.89 5.68-5.23 11.98-4.832 18.449.23 2.172 1.422 5.133 4.043 5.031 3.957.262 7.16-2.582 9.88-5.09 8.628-8.718 14.66-19.5 21.148-29.8 4.082-7.07 8.543-13.93 12.101-21.29-3.8-4.02-10.21-2.73-14.351.04m-57.778 4.12c-7.48 6.962-12.812 15.782-17.921 24.52 13.07-1.762 25.949-10.031 30.351-22.89.559-2.692 1.48-6.622-1.45-8.258-4.581 0-7.901 3.726-10.98 6.629m101.16-59.813c4.36-4.918 11.27-2.129 16.868-2.137-15.008 22.559-28.02 46.399-40.688 70.329-5.25 10.39-11 20.652-14.23 31.902-.742 3.418-1.692 7.316.058 10.598 1.582 3.039 5.852 2.101 8.18.492 5.27-3.75 9.152-9.102 12.402-14.621 3.48-5.211 6.66-10.621 9.59-16.153.98.82 2.758 1.84 1.551 3.371-3.75 9-9 17.332-14.992 25-3.621 3.852-7.29 8.563-12.86 9.403-4.351.968-9.5-.39-11.96-4.313-3.418-5.05-3.73-11.46-2.23-17.219-3.56 5.942-7.7 11.63-12.759 16.391-5.48 4.629-14.14 6.828-20.261 2.16-5.18-3.75-5.282-10.75-4.91-16.511-5.11 7.718-11.75 14.699-20.32 18.52-4.56 1.831-9.661 1.882-14.438 1.19-9.153-2-15.301-11.671-13.793-20.832-4.47 7.391-9.93 14.66-17.7 18.82-5.8 3.063-14.187 2.723-18.37-2.847-3.208-4.82-3.298-10.93-2.887-16.5-4.832 7.379-10.07 15.168-18.23 19.16-4.68 1.989-11.032 2.367-14.673-1.781-5.097-5.07-4.3-13.09-2.258-19.371-3.609 1.7-7.78 4.473-11.8 2.43-2.61-1.36-4.012-4.098-5.582-6.438-4.329 9.758-10.797 18.918-19.79 24.899-4.667 2.75-11.25 4.21-15.98.87-3.41-2.89-4.23-7.73-3.84-11.968.211-5.492 2.54-10.613 4.313-15.652-5.614 9.16-10.903 19.101-19.852 25.48-3.941 3.07-9.36 3.809-14.101 2.5-4.637-1.602-7.66-6.41-7.47-11.262-.32-10.168 5.333-19.11 10.5-27.418 1.77-3.082 4.81-5.879 4.86-9.61-1.699-2.98-5.16-1.179-7.3.161-8.22 5.688-14.797 13.348-20.848 21.23-6.031 6.989-10.219 15.258-14.813 23.208-.879 1.242-1.718 3.07-3.5 3.011-3.93.32-7.867.59-11.75 1.29 10.282-18.47 18.524-38.06 29.5-56.169 2.473-4.152 5.344-8.851 10.332-10.16 3.711-.453 7.328 1.09 11.059.899-10.707 8.82-16.14 22.07-23.207 33.66 9.09-8.98 18.02-18.442 29.238-24.84 6.75-3.8 13.852-8.32 21.93-7.871-1.969 4.723-5.16 8.781-7.36 13.383-5.32 11.02-12.101 21.418-15.808 33.148-.781 3.559-2.371 7.371-1.024 10.988 1.57 3.153 5.883 1.903 8.102.16 9.86-7.25 15.11-18.699 20.879-29.128 3.5-7.54 7.34-15.47 6.902-24 .028-2.36-1.34-4.352-2.543-6.25 4.844-.07 9.563-2.09 14.442-1.239 2.25 1.75 1.73 5 1.82 7.528-1.148 14.832-8.621 28.031-12.61 42.14-.68 3.54-2.171 7.672.11 10.95 2.91 2.39 6.96.59 9.582-1.368 7.238-6.601 12.2-15.171 16.969-23.613-2.02-8.906-1.04-18.367 1.87-26.969 1.868-4.78 4.161-10.289 9.329-12.257 2.219-.903 5.719-1.192 6.86 1.449.66 2.98-.77 5.879-1.528 8.71-3.043 10.09-7.602 19.618-12.082 29.137-2.602 5.102 3.832 11.223 8.91 8.653 6.48-2.551 8.86-9.64 11.578-15.422 3-6.688 5.723-13.488 8.672-20.188 1.469-2.793-.2-5.632-1.64-8 4.18 0 8.351-.53 12.539-.332 2.062-.078 4.5 1.711 3.562 4.012-3.922 10.809-10.441 20.43-14.73 31.078-2.801 6.531-6.43 12.91-7.332 20.063-.309 2.61.761 5.879 3.453 6.797 3.77.64 7.367-1.297 10.07-3.778 8.129-7.21 13.27-16.992 18.188-26.5 4.19-11.39 8.402-22.781 13.761-33.68a111 111 0 0 0-12.383-.081c.91-1.782 1.891-3.532 2.98-5.2 3.821-.03 7.653-.14 11.474.14 4.359-7.69 7.52-16.312 13.93-22.62 3.558-3.488 8.64-4.531 13.429-4.95-5.723 8.86-10.36 18.34-15.492 27.532 5.863-.102 11.73-.05 17.601.11-.93 1.616-1.75 3.32-2.93 4.777-5.652.37-11.34.191-16.992.082-2.808 7.34-6.578 14.257-9.578 21.52-3.73 9.218-7.25 18.589-9.37 28.327-.571 4.34-1.009 9.301 1.69 13.063 2.27 3.008 6.7 2.328 9.59.64 6.141-3.55 9.75-9.941 13.68-15.613 5.262-7.808 7.961-16.976 13.149-24.816 4.48-6.672 9.75-12.953 16.39-17.563 4.883-3.539 10.711-6.23 16.871-5.98 4.762-.09 9.36 3.781 9.64 8.633.349 5.558-2.788 10.609-5.96 14.918-8.031 9.921-20.469 15.12-32.828 17.05-2.05 6.79-4.121 14.418-1.133 21.258.961 2.602 3.57 4.352 6.34 4.402 7.473.329 14.562-3.492 19.543-8.878 5.047-5.391 9.27-11.57 12.77-18.051 3.109-7.742 6.988-15.27 12.538-21.563 6.051-7.078 13.34-13.68 22.45-16.386 7.09-1.98 15.379-2.032 21.441 2.699 5.508-10.36 10.84-20.813 16.129-31.29 3.738-6.94 6.332-14.6 11.102-20.933"/><path fill="#010101" d="M1099.45 468.559c4.331-2.25 10.402 1.441 9.581 6.46-.281 6.04-8.062 11.16-13.242 7.192-4.43-4.04-1.867-12.012 3.66-13.652M706.68 504.68c-5.711 6.082-9.63 13.5-14 20.539 8.539-.93 16.66-4.82 22.902-10.68 3.809-4.508 7.207-9.68 8.598-15.488.808-2.692-.97-6.403-4.2-5.54-5.5 2.22-9.37 6.95-13.3 11.169m-61.57-29.649c.6-2.531 2.32-4.84 4.89-5.61 5.238-.042 8.75 5.798 7.82 10.63-.351 7.097-6.191 11.937-11.18 16.21 8.88.5 17.79.2 26.641-.523 1.13 7.102-3.37 13.16-6.082 19.332-4.52 8.399-9.008 16.852-12.27 25.84-1.019 3.219-1.84 6.692-1.038 10.059.379 2.16 3.18 3.34 5 2.14 7.05-4.3 11.918-11.289 15.75-18.46 3.91-6.31 6.379-13.368 10.238-19.7 4.851-8.48 11.402-16.039 19.422-21.648 4.84-3.281 10.77-5.262 16.648-4.68 3.27.52 6.723 2.2 8.09 5.399 1.61 3.66.852 7.968-.77 11.5-4.449 9.05-12.57 16.23-22.097 19.55-4.934 2.168-10.16 3.621-15.492 4.39-1.64 6.052-4.04 12.411-2.27 18.712.86 3.629 3.578 7.367 7.63 7.5 8.831.508 16.73-4.98 22.16-11.492 5.812-7.07 10.44-15.051 14.39-23.282.73.711 1.45 1.434 2.2 2.172-5.18 10.77-10.688 21.86-19.86 29.828-5.621 4.442-12.692 7.473-19.961 7-10.77.262-20.528-10.277-18.43-21.117-3.23 4.93-6.73 9.7-10.738 14.02-3.38 3.398-7.813 6.46-12.832 6.12-7.18.4-12.438-7.23-11.41-13.933 1.16-13.308 10.453-23.75 15.8-35.488 1.23-2.828-.988-6.078-3.757-6.871-3.614-1.047-7.41-1.078-11.063-1.93-2.867 7.653-6.86 14.82-9.77 22.473-1.109-.75-3.46-1.07-2.347-2.871 2.707-6.942 5.539-13.852 8.09-20.852 2.468-8.07 4.636-16.219 6.597-24.418M485.918 501.91c-6.54 6.399-10.59 14.73-14.297 22.961-2.8 6.95-5.281 14.469-4.133 22.059.5 2.93 2.371 6.039 5.422 6.82 2.281.21 4.63-.32 6.649-1.41 7.601-4.32 12.953-11.57 17.101-19.102-1.648-2.828-3.129-5.847-3.36-9.168-.57-3.98-.019-8.808 3.68-11.16 2.31-1.48 5.06-.578 7.18.79.48-4.571 1.48-9.38-.219-13.81-.703-2.152-2.37-4.3-4.75-4.538-5.37-.993-9.773 3.07-13.273 6.558m-13.34-1.398c5.57-6.153 12.922-11.5 21.453-12.07 4.38-.403 9.117 1.058 11.899 4.617 4.34 4.84 5.058 11.73 4.43 17.953-.5 8.308-4.419 15.808-7.989 23.16 2.98 1.43 6.258 3.11 9.649 2.066 6.19-1.476 10.261-6.968 12.66-12.52 4.422-10 10.18-19.32 14.922-29.16 1.527-3.038 5-5.117 8.398-4.867 3.898.04 7.8.13 11.7.188-8.759 7.543-13.04 18.492-18.38 28.422-4.351 8.64-9.449 17.12-11.39 26.699-.442 2.82-.692 6.43 1.851 8.379 2.387 1.242 5.117-.16 7.11-1.547 4.55-3.383 8.27-7.742 11.43-12.422 9.73-13.64 16.59-28.988 24.347-43.77 1.434-2.68 3.863-5.62 7.203-5.44 4.11 0 8.207.09 12.32-.052-2.082 2.25-4.312 4.403-5.98 6.993-5.91 9.03-11.031 18.539-15.902 28.148-3 7.293-7.079 14.723-6.45 22.852.16 3.039 2.891 6.199 6.192 5.07 6.23-1.781 10.16-7.43 13.71-12.461 4.13-6.5 7.489-13.45 11.067-20.262.57.383 1.711 1.133 2.281 1.512-3.05 9.219-8.43 17.32-13.597 25.45-4.051 5.788-10.121 10.98-17.48 11.382-3.403.477-6.973-1.082-8.872-3.934-3.98-5.488-3.59-12.93-1.601-19.09-5.41 7.954-10.91 16.493-19.57 21.243-5.188 3-12.571 2-16.548-2.512-4.363-6.039-2.472-14.219.547-20.418-5.148 6.32-15.218 7.777-21.86 3.008-5.526 9.121-13.14 18.582-24.179 20.742-3.687.89-7.781 1.129-11.238-.66-6.45-2.961-8.86-10.66-9.211-17.23-.09-14.82 7.23-28.77 17.078-39.47M1229.18 646.7c1.832 1.8 3.61 3.69 5.61 5.32.132-2.598-2.74-6.782-5.61-5.32m-18.61-77.84c4.79-1.622 9.41-3.981 13.02-7.579 2.41 5.867.59 12.43 1.25 18.598-.09 6 .41 11.98.87 17.953.99 12.406 2.97 24.719 3.759 37.137.332 2.781-.59 6.492 2.332 8.18 5.398 3.64 10.148 8.542 16.488 10.55 1.64-5.398 3.43-11.73 9.031-14.289-2.11 4.328-4.218 8.828-3.89 13.79 3.601-6.81 11.09-10.86 18.78-10.29-5.42 2.95-13.39 4.871-14.14 12.211 3.239-1.223 5.782-3.652 8.73-5.402 1.81-.778 3.872-.457 5.821-.598-1.223 1.649-2.473 3.29-3.57 5.008 2.469-1 4.82-2.328 7.328-3.277-1.57 2.027-3.809 3.32-5.82 4.84 26.3 5.757 52.98 9.546 79.32 15.09-2.219.859-4.629.64-6.93.687-57 .07-114-.11-170.988-.07-24.89-.137-49.8.242-74.672-.31 1.93-1.507 4.43-1.609 6.742-2.14 17-3.36 34.07-6.379 51.11-9.539 4.37-.96 8.941-1.238 13.09-3.05a52 52 0 0 1-6.243-3.169c1.91.047 3.844.13 5.782.239-1.07-1.09-2.09-2.121-3.09-3.22 3.218-.081 6.191 1.27 9.261 2.09-1.421-2.41-3.25-4.51-4.851-6.76.941-.11 1.762.151 2.46.769 3.391 2.73 5.802 6.453 8.99 9.41a22.57 22.57 0 0 1 8.519-16.078c-1.188 2.91-2.77 5.629-3.887 8.558 2.598-2.097 4.527-4.898 7.207-6.93-.027 3.422-2.047 6.38-2.95 9.602 1.75-.98 3.481-2.012 5.41-2.652-1.32 2.113-2.757 4.172-3.698 6.48 2.578-1.418 4.82-3.379 7.3-4.98a11.4 11.4 0 0 1-2.203 4.082c2.332-.371 6.532.781 6.492-2.813.59.082 1.758.25 2.352.332.648-14.12 3.008-28.11 3.617-42.23.012-4.34.582-8.649.7-12.98.12-5.59.242-11.18.75-16.75.312-3.489.48-6.989.421-10.5M586.2 617.281c8.14.137 16.269.168 24.41.11-.008 1.73 0 3.468.011 5.218-6.32-.148-12.652-.109-18.98-.078.078 4.219.14 8.438.14 12.668 6.14.102 12.29.211 18.43.121 0 1.63.02 3.27.05 4.918-6.19-.09-12.39.024-18.581-.02.058 5.66.07 11.333.07 17 6.41.032 12.832-.019 19.25.044-.168 1.828-.328 3.68-.54 5.52-8.081-.391-16.179.038-24.25-.5l-.12-2.384c.262-14.199.16-28.41.11-42.617M651.238 617.371q3.345-.002 6.692.008c4.058 11.21 7.87 22.531 12.59 33.48 4.539-10.43 8.14-21.23 12.609-31.687.16-.383.473-1.14.633-1.512 1.847.07 3.718.14 5.597.192-.21.52-.62 1.558-.828 2.078-5.59 14.742-11.883 29.199-17.87 43.789-3.302-6.16-5.329-12.88-8.282-19.2-4.07-8.898-7.078-18.238-11.14-27.148M732.918 618.27c8.07-.149 16.14-.07 24.21-.122-.058 1.782-.116 3.57-.187 5.364-6.082-.332-12.171-.024-18.242-.25.031 4.136.082 8.277.031 12.43 6.02.027 12.051.18 18.07-.012.02 1.789.04 3.582.071 5.39-6.133-.351-12.27.25-18.402.04.011 1.09.043 2.199.07 3.312.082 4.43.02 8.867-.008 13.316 6.278-.066 12.559-.039 18.84-.16-.172 1.832-.281 3.684-.582 5.512-8.008-.18-16.027-.3-24.05-.2.12-6.878-.06-13.75.152-20.62.32-7.989-.2-16 .027-24M805.852 616.809c10.777 11.59 21.597 23.16 32.23 34.91.2-11.008.027-22.02.188-33.028 1.742 0 3.48 0 5.242.008-.012 11.473.039 22.95-.121 34.43-.02 3.91 0 7.832-.172 11.742-5.32-5.621-10.309-11.539-15.828-16.96-5.63-5.95-10.68-12.442-16.551-18.161-.078 3.379-.121 6.77.191 10.14.301 7.739-.011 15.489.207 23.231-1.886 0-3.77.02-5.636.05.16-8.41-.153-16.831 0-25.241-.032-7.051-.012-14.09.25-21.121M964.66 621.66c3.75-3.59 9.442-4.2 14.328-3.078 3.274.93 5.524 3.637 7.633 6.148-1.473 1-2.922 2.02-4.371 3.04-2.219-3.32-6.031-5.649-10.129-4.489-4.941.867-6.191 8.04-2.371 10.957 4.84 3.852 11.922 4.032 16 9 3.89 4.102 3.582 10.614.77 15.211-4.891 9.313-20.7 8.551-25.11-.789-.351-.68-1.05-2.031-1.398-2.71 1.699-.9 3.41-1.802 5.09-2.74 1.5 4.13 4.867 8.778 9.859 8.099 5.648-.047 10.277-6.75 7.36-11.88-3.192-5.98-11.06-5.78-15.942-9.73-5.66-3.59-6.2-12.328-1.719-17.039M887.781 618.8c10.258.04 20.52.079 30.778.04.011 1.82.03 3.648.082 5.48-4.16-.07-8.313-.07-12.45-.152.02 13.094-.23 26.191.079 39.281-1.93.082-3.86.172-5.782.281-.008-13.18.153-26.359-.039-39.53-4.238.109-8.48.081-12.71.09q.015-2.76.042-5.49"/><path fill="#3a5a3a" d="M1220.68 292.691c2.18 1.7 1.289 4.66 1.53 7.028-.331-.14-1-.43-1.331-.578-.11-2.153-.219-4.301-.2-6.45M1178.441 345.469c1.09-3.489.637-7.547 2.868-10.617-.149 3.378-1.149 6.668-1.168 10.058-.422.14-1.27.422-1.7.559M799.121 402.8c5.367 3.802 9.91 8.848 15.879 11.759 6.031-2.77 11.45-6.73 17.02-10.32-1.508 2.761-2.649 5.71-3.48 8.741-1.169 3.489-3.04 6.7-4.33 10.149l1.13.723c5.12 3.238 9.8 7.09 14.601 10.757-6.453.13-12.93-.62-19.359-.058-3.64 5.347-4.66 12.058-7.8 17.73-1.43-6.12-1.93-12.62-5.012-18.21-5.579-1.243-11.348-.27-17-.551 1.921-2.11 3.98-4.11 6.19-5.93l.962-.82 1.137-.73c1.84-1.212 3.613-2.528 5.382-3.849-1.562-6.523-3.53-12.93-5.32-19.39M887.781 618.8c-.02 1.821-.031 3.65-.043 5.49 4.23-.009 8.473.019 12.711-.09.192 13.171.031 26.35.04 39.53 1.921-.109 3.85-.199 5.78-.28-.308-13.09-.058-26.188-.078-39.282 4.137.082 8.29.082 12.45.152-.051-1.832-.07-3.66-.082-5.48-10.258.039-20.52 0-30.778-.04m76.88 2.86c-4.481 4.711-3.942 13.45 1.718 17.04 4.883 3.948 12.75 3.75 15.941 9.73 2.918 5.129-1.71 11.832-7.36 11.879-4.991.68-8.358-3.97-9.858-8.098-1.684.937-3.391 1.84-5.09 2.738.347.68 1.047 2.031 1.398 2.711 4.41 9.34 20.219 10.102 25.11.79 2.808-4.598 3.12-11.11-.77-15.212-4.082-4.968-11.16-5.148-16-9-3.82-2.918-2.57-10.09 2.371-10.957 4.098-1.16 7.91 1.168 10.129 4.489 1.45-1.02 2.898-2.04 4.371-3.04-2.11-2.511-4.36-5.218-7.633-6.152-4.886-1.117-10.578-.508-14.328 3.082M613 507.57c4.918-.039 9.852-.02 14.77-.289-1.149 4.207-2.829 8.239-4.192 12.38-1.316 3.667 1 8.03 4.531 9.448 2.86.72 5.93.5 8.77-.25 3.66-5.398 5.02-12.007 8.3-17.629.833-1.5 2.66-1.82 4.06-2.55-.387 3.218-2.59 5.672-4.098 8.41-3.77 7.39-8.512 14.531-9.961 22.851-1.11 6.778-.461 14.368 4.03 19.887 5.028 5.75 13.642 8.063 20.83 5.281 5.3-1.57 8.85-5.968 13.07-9.218 1.788 1.168 3 3.027 4.62 4.418 7.188 6.07 17.149 7.832 26.23 5.87 8.75-1.378 15.661-7.48 21.509-13.71 5.332-5.7 8.59-12.899 12.742-19.43 2.687.852 5.367 1.75 8.05 2.68-.523 6.25-.511 12.582.4 18.8 1.6 7.88 4.96 15.461 10.167 21.63 5.524 6.542 12.34 11.831 19.39 16.613 28.012 16.09 63.673 16.52 92.852 3.238 2.39-1.082 4.649-3.57 7.508-2.512 41.363 11.41 85.3 12.262 127.352 4.18 12.879-2.008 25.3-6.09 38.058-8.648 8.07-1.57 15.89-4.168 23.903-5.98 22.73-4.911 45.257-11.08 68.449-13.52 7.558-.668 15.23-1.532 22.789-.29 5.57.98 11.25.04 16.851.73 8.06.95 16.11 2.052 24.051 3.74 4.5.741 8.278 3.402 12.117 5.66-.507 5.57-.628 11.16-.75 16.75-20.77 1.152-41.07 6.519-60.48 13.808-20.637 7.57-39.988 18.121-60.027 27.094-6.262 2.648-12.2 6-18.563 8.43-17.918 7.046-35.816 14.296-54.418 19.398-28.55 7.87-58.32 12.281-87.96 10.012-24.782-2.25-49.372-7.364-72.66-16.204-4.052-1.628-8.571-2.5-11.9-5.52.16-11.48.11-22.96.122-34.429-1.762-.008-3.5-.008-5.242-.008-.16 11.008.011 22.02-.192 33.028-10.629-11.75-21.45-23.32-32.226-34.91-.262 7.03-.282 14.07-.25 21.12-13.012-5.5-25.934-11.218-38.993-16.628-11.808-5.7-23.789-11.09-36.03-15.813-14.411-6.11-28.661-12.66-43.49-17.726-18.671-6.852-37.35-14.23-57.019-17.692-13.98-2.64-28.34-2.39-42.39-.511-26.11 3.55-52.102 7.8-78.11 11.992-11 1.27-21.941 3.219-33.02 3.75 2.821-3.531 6.11-6.91 7.27-11.41 1.418-3.461 1.14-7.223 1.2-10.86 3.48-2.863 7.289-5.32 10.48-8.531 2.852-2.422 4.98-5.582 7.852-7.969 2.77-.75 5.687-.402 8.539-.46.129 5.73 1.668 11.96 6.5 15.558 6.187 4.152 14.558 5.539 21.468 2.34 4.422-1.68 7.493-5.457 11.461-7.899 2.63 5.22 7.692 9.059 13.578 9.649 7.57 1.25 14.813-2.66 20.301-7.528 6.742-6.23 11.281-14.332 15.781-22.222 2.149-4.11 4.38-8.34 5.122-12.969.148-4.73-4.204-9.309-9.082-8.781-3.27-.578-6.008 1.672-7.29 4.5-4.832 9.332-9.109 19.39-16.902 26.71 0-5.6 2.832-10.57 5.07-15.519 2.461-5.45 5.5-10.61 7.91-16.082.653-1.328 1.172-2.789 2.25-3.848 1.852-.812 3.942-.68 5.922-.91 6.348-.37 12.641-1.48 19.02-1.5"/><path fill="#3a5a3a" d="M676 512.012c.371-2.024 2.61-1.492 4.11-1.844-6.75 10.184-9.508 22.672-17.872 31.89-.09-3.718 2.203-6.859 3.563-10.167 3.02-6.832 7.34-12.98 10.199-19.88M548.879 518.84c1.43-2.531 4.742-1.77 7.152-2.09-4.55 8.59-9.761 16.86-15.972 24.36-.868 1.05-2.047 1.761-3.168 2.5 2.648-8.86 7.527-16.758 11.988-24.77M1129.582 519.281c.566-1.34 2.348-.761 3.488-.953 2.98 0 5.961.34 8.95.602-3.25 8.87-7.93 17.129-13.23 24.922-1.45 2.289-4.08 3.957-6.868 3.359-1.363-.68-.41-2.422-.34-3.543 1.008-3.867 2.59-7.559 3.68-11.406 1.34-4.352 2.117-8.942 4.32-12.98M1094.398 523.332c1.293-3.152 5.223-3.07 8.02-3.75-1.86 7.29-5.668 13.797-9.918 19.918-2.59 3.54-4.46 8.102-8.738 9.922.039-4.211 2.36-7.8 3.949-11.55 2.168-4.872 4.418-9.712 6.687-14.54M1220.332 524.148c1.04-2.27 3.168-3.648 5.578-4.097-.398 4.11-3.219 7.27-4.95 10.847-2.19 4.57-5.878 8.133-8.53 12.403-1.032 1.59-2.25 3.058-3.551 4.418-.02-4.008 2.383-7.301 3.871-10.84 1.82-4.649 5.34-8.309 7.582-12.73M512.46 528.96c-.25-2.92 1.77-5.32 4.47-6.151-.739 2.53-2 4.921-4.47 6.152M695.93 535.07c9.12-2.539 18.57-5.218 26.23-11.011-.66 3.832-1.89 7.652-4.531 10.601-4.16 4.809-7.988 10.559-14.29 12.711-2.46.988-6.12 1.848-7.737-.93-1.532-3.632-.293-7.66.328-11.37M805.871 525.07c13.55 3.899 26.688 9.149 40.399 12.551 14.87 3.867 29.921 7.379 45.27 8.61-4.45 5.628-10.08 10.12-15.22 15.07-1.379 1.219-2.699 2.59-4.41 3.32-3.351-.742-6.21-2.793-9.328-4.11-13.434-6.03-26.043-13.683-38.39-21.64-6.41-4.18-12.813-8.46-18.32-13.8M1163.031 538.969c8.13-2.367 15.848-5.957 23.278-10-.297 2.172-.77 4.37-2.149 6.14-3.21 4.403-6.37 9.032-10.992 12.082-3.86-1.601-8.066-1.48-12.148-1.332.37-2.238-.942-6.058 2.011-6.89M1033.969 536.02c1.57-2.668 4.863-3.36 7.55-4.372-2.578 5.461-6.949 9.813-9.738 15.16-.402-.206-1.191-.628-1.582-.84 1.242-3.32 2.121-6.796 3.77-9.948M475.5 538.582c2.98-2.082 6.691-2.57 10.2-3.062-2.071 4.53-5.13 9.832-10.528 10.628-.05-2.457-1.41-5.457.328-7.566"/><path fill="#3a5a3a" d="M1054.371 546.418c1.961-.238 3.93.133 5.89.32.59 2.82.919 5.692 1.458 8.524.57 3.347 3.101 5.797 5.23 8.27-12.699 4.468-25.969 7.046-38.89 10.777-34.22 8.21-70.278 13.882-105.18 6.41 1.75-2.778 3.953-5.27 6.84-6.899-1.047 1.88-2.07 3.782-2.95 5.75 5.18-2.71 7.391-8.511 11.45-12.43 3.742-1.16 8.09.622 11.64-1.242 5.012-4.68 6.602-11.918 11.38-16.808 2.132-.711 4.402-.711 6.62-.91.43 5.691 1.403 12.082 6.07 15.93 4.032 2.98 8.981 5.058 14.071 4.761 7.059-.02 13.18-4.371 18.012-9.14 2.476 3.48 5.168 7.218 9.36 8.73 7.648 2.8 16.507.629 22.89-4.172 6.527-4.82 11.238-11.52 16.11-17.871M771.941 548.012c10.118 5.277 20.477 10.09 30.66 15.277 13.669 6.48 27.16 13.422 41.54 18.223-4.063 2.988-9.442 2.937-14.223 3.758-14.707.8-30.54-1.54-42.469-10.79-8.578-6.23-13.61-16.21-15.508-26.468M438.64 552.602c3.77-1.391 7.579-2.762 11.579-3.364 1.8 8.16 8.601 14.684 16.82 16.172-.578 1.262-.898 2.77-2.027 3.7-4.512 3.812-10.492 4.98-16.114 6.16-6.73 1.21-13.546 2.34-20.41 2.062 1.09-4.184 3.774-7.66 5.274-11.672 1.668-4.34 3.226-8.719 4.879-13.058M922.621 551.54c1.59-2.84 5.258-1.438 7.89-1.618-4.792 9.668-8.542 19.777-13.671 29.277-5.168-.59-10.102-2.258-15.059-3.699 1.64-1.941 3.38-3.8 5.258-5.531 5.883-5.52 10.652-12.078 15.582-18.43M1253.8 565.762c3.028-2.051 5.16-5.121 8.11-7.274 22.7 11.91 43.63 26.922 63.461 43.121 3.297 2.832 7.059 5.141 9.918 8.47-5.008-1.74-9.258-5-13.93-7.411-16.718-8.68-33.968-16.297-51.41-23.398-8.75-3.051-17.578-5.852-26.34-8.88 3.442-1.43 7.211-2.269 10.192-4.628M377.71 574.55c11.08-2.222 20.462-9.35 31.52-11.671-1.68 5.18-4.652 9.812-6.48 14.941-11.3-.011-22.629.168-33.852 1.54-9.968.94-20.007 2.128-29.597 5.109-3 1.09-6.102-.028-9.012-.82-5.148-1.56-10.469-2.7-15.328-5.079 12.398-.879 24.84-1.672 37.11-3.84 2.96-.582 6.038-.832 8.968.09 5.441 1.63 11.191.621 16.672-.27M234.691 568.988c19.579 15.063 42.2 26.524 66.47 31.594-2.72 3.457-6.29 6.258-8.352 10.219-1.66 2.82-1.868 6.16-2.38 9.32-12.327-6.652-23.179-15.64-33.66-24.851-8.18-8-16.44-16.239-22.078-26.282M1224.84 579.879c8.32 2.012 15.66 6.55 23.558 9.672 4.372 1.758 8.332 4.32 12.43 6.61 3.942 2.32 8.262 4.23 11.422 7.66-7.781-1.602-15.352-4.153-23.27-4.993-7.71-.969-15.511-1.258-23.27-1-.46-5.969-.96-11.95-.87-17.95M525.93 601.18c27.949-2.32 56.14-3.828 84.12-1.051 18.54 1.71 36.65 6.5 54.2 12.59 6.27 2.21 12.54 4.41 18.879 6.453-4.469 10.457-8.07 21.258-12.61 31.687-4.718-10.949-8.53-22.27-12.59-33.48q-3.345-.01-6.69-.008c4.062 8.91 7.07 18.25 11.14 27.149 2.95 6.32 4.98 13.039 8.281 19.199 5.988-14.59 12.281-29.047 17.871-43.79.028 1.532.75 2.782 2.25 3.321 7.078 3.82 14.66 6.602 21.809 10.27 6.738 2.98 13.12 6.89 20.3 8.75-.21 6.87-.03 13.742-.152 20.62 8.024-.1 16.043.02 24.051.2.3-1.828.41-3.68.582-5.508-6.281.117-12.562.09-18.84.156.028-4.449.09-8.886.008-13.316 8.461 3.457 16.422 8.039 24.27 12.707 14.453 7.101 29.62 12.59 44.609 18.41 27.691 9.941 56.312 17.73 85.652 20.691 24.551 2.47 49.442 2.59 73.89-1.02 9.419-.92 18.599-3.358 27.938-4.722-6.77 4.73-14.386 8.102-21.867 11.551-21.98 9.98-45.383 16.441-69.02 21.07-15.562 2.563-31.261 4.79-47.062 4.59-13.34.352-26.699-.097-39.93-1.91-15.578-1.39-30.89-4.77-45.98-8.789-22.078-5.89-43.02-15.16-64.629-22.469-16.012-6.37-32.308-11.949-48.71-17.191-15.59-5.149-31.571-8.969-47.4-13.25l.16-1.309c.208-1.84.368-3.691.54-5.52-6.422-.062-12.84-.011-19.25-.042 0-5.668-.012-11.34-.07-17 6.191.043 12.39-.07 18.582.02a260 260 0 0 1-.051-4.919c-6.14.09-12.293-.02-18.43-.12 0-4.231-.062-8.45-.14-12.669 6.328-.031 12.66-.07 18.98.078-.012-1.75-.02-3.488-.012-5.218-8.14.058-16.27.03-24.41-.11.051 14.207.153 28.418-.11 42.617-10.66-1.218-21.378-1.808-32.077-2.52-19.672.071-39.352-.577-58.992.602-26.372.38-52.88 1.18-79.11-2.261-23.691-2.2-47.21-6.25-70.219-12.32 2.86-1.36 6.008-1.848 9-2.797 11.059-4 22.028-8.563 31.758-15.27 5.192-3.723 10.621-7.172 15.16-11.71 1.352-1.063 2.512-2.79 4.371-2.852 40.13-.97 79.98-6.29 119.95-9.59M333.41 609.3c3.02-1.46 6.418-.491 9.578-.179 9.582.93 19.18 1.508 28.801 1.82-1.039.918-2.027 1.918-3.21 2.668-13.817 7.73-29.599 13.2-45.63 11.512-2.328-.332-4.918-.941-6.46-2.86-.54-1.702 1.34-2.62 2.37-3.57 4.653-3.41 9.32-6.91 14.551-9.39M810.84 629.75c5.87 5.719 10.922 12.21 16.55 18.16-4.062-.398-7.6-2.52-11.269-4.082-1.98-.867-4.18-1.828-5.09-3.937-.312-3.371-.27-6.762-.191-10.141"/></svg>